<svg id="HSCPPlogo" xmlns="http://www.w3.org/2000/svg" viewBox="0 0 16 16"><defs><style>.cls-1{fill:#e60078;}.cls-2{fill:#28006f;}.cls-3{fill:#25d07b;}.cls-4{fill:#b0e2e3;}.cls-5{fill:#009a44;}.cls-6{fill:#1b0944;}</style></defs><g id="Anti-alias_fix" data-name="Anti-alias fix"><path class="cls-1" d="M7.34 2.2l-.25-.78L0 3.62l3.12 10.03 3.03-.94h.01l2.03-7.78-.85-2.73z"/><path class="cls-2" d="M8.19 4.93L7.34 2.2H4.56v10.51h1.6l4.05-1.26-2.02-6.52z"/><path class="cls-3" d="M7.34 2.2l.85 2.73 2.02 6.52-4.05 1.26h5.83V2.2H7.34z"/><path class="cls-4" d="M11.99 3.37l-3.18-.83-.62 2.39 2.02 6.52-4.05 1.26L13 14l1-9-2.01-1.63z"/></g><path class="cls-3" d="M8.81 2.54l3.18.83V2.2H7.34l.85 2.73.62-2.39z"/><path class="cls-4" d="M6.16 12.71l7.19 1.88L16 4.42l-4.01-1.05v9.34H6.16z"/><path class="cls-5" d="M8.19 4.93l2.02 6.52-4.05 1.26h5.83V3.37l-3.18-.83-.62 2.39z"/><path class="cls-1" d="M4.56 2.2h2.78l-.25-.78L0 3.62l3.12 10.03 3.03-.94H4.56V2.2z"/><path class="cls-2" d="M8.19 4.93L7.34 2.2H4.56v10.51h1.6l2.03-7.78z"/><path class="cls-6" d="M8.19 4.93l-2.03 7.78 4.05-1.26-2.02-6.52z"/></svg>