<svg id="HSCPPlogo" xmlns="http://www.w3.org/2000/svg" viewBox="0 0 16 16"><defs><style>.cls-1{fill:#25d07b;}.cls-2{fill:#b0e2e3;}.cls-3{fill:#009a44;}.cls-4{fill:#e60078;}.cls-5{fill:#28006f;}.cls-6{fill:#1b0944;}</style></defs><title>icon</title><polygon class="cls-1" points="8.81 2.54 11.99 3.37 11.99 2.2 7.34 2.2 8.19 4.93 8.81 2.54"/><circle class="cls-1" cx="6.16" cy="12.71" transform="translate(-1.05 0.57) rotate(-4.85)"/><polygon class="cls-2" points="6.16 12.71 13.35 14.59 16 4.42 11.99 3.37 11.99 12.71 6.16 12.71"/><polygon class="cls-3" points="8.19 4.93 10.21 11.45 6.16 12.71 6.16 12.71 6.16 12.71 11.99 12.71 11.99 3.37 8.81 2.54 8.19 4.93"/><polygon class="cls-4" points="4.56 2.2 7.34 2.2 7.09 1.42 0 3.62 3.12 13.65 6.15 12.71 4.56 12.71 4.56 2.2"/><polygon class="cls-5" points="8.19 4.93 7.34 2.2 4.56 2.2 4.56 12.71 6.15 12.71 6.16 12.71 8.19 4.93"/><polygon class="cls-6" points="8.19 4.93 6.16 12.71 10.21 11.45 8.19 4.93"/></svg>