<?xml version="1.0" standalone="no"?>
<!DOCTYPE svg PUBLIC "-//W3C//DTD SVG 20010904//EN"
 "http://www.w3.org/TR/2001/REC-SVG-20010904/DTD/svg10.dtd">
<svg version="1.0" xmlns="http://www.w3.org/2000/svg"
 width="700.000000pt" height="700.000000pt" viewBox="0 0 700.000000 700.000000"
 preserveAspectRatio="xMidYMid meet">
<metadata>
Created by potrace 1.11, written by Peter Selinger 2001-2013
</metadata>
<g transform="translate(0.000000,700.000000) scale(0.100000,-0.100000)"
fill="#000000" stroke="none">
<path d="M2900 6339 c-195 -63 -325 -104 -515 -164 -82 -26 -197 -62 -255 -80
-58 -19 -186 -59 -285 -90 -99 -31 -198 -62 -220 -70 -22 -7 -105 -34 -185
-59 -80 -25 -273 -86 -430 -136 -157 -50 -292 -92 -300 -94 -8 -2 -64 -20
-125 -39 -107 -34 -419 -133 -520 -164 -27 -9 -54 -19 -58 -23 -4 -4 -1 -27 7
-51 8 -24 37 -118 66 -209 28 -91 55 -176 60 -190 4 -14 36 -113 70 -220 34
-107 68 -215 76 -240 83 -262 110 -348 154 -490 28 -91 55 -176 60 -190 5 -14
28 -86 51 -160 23 -74 52 -166 64 -205 13 -38 44 -137 70 -220 25 -82 66 -211
89 -285 43 -133 84 -263 206 -650 34 -107 76 -242 95 -300 18 -58 56 -179 85
-270 132 -421 196 -622 215 -677 3 -9 11 -10 27 -3 13 5 176 57 363 115 187
59 401 126 475 150 194 63 552 176 570 180 16 4 194 61 995 315 502 160 588
186 633 197 28 7 28 14 -2 104 -13 41 -50 155 -81 254 -31 99 -85 270 -120
380 -35 110 -86 272 -113 360 -28 88 -94 297 -147 465 -91 287 -114 360 -180
570 -14 47 -44 139 -65 205 -21 66 -61 192 -88 280 -60 189 -158 499 -213 675
-54 170 -88 278 -144 455 -25 83 -50 161 -55 175 -7 20 -89 282 -131 418 -7
20 -17 32 -27 31 -9 0 -87 -23 -172 -50z"/>
<path d="M3687 5988 c8 -27 27 -91 43 -141 55 -176 222 -713 285 -917 75 -242
261 -843 319 -1028 14 -42 42 -135 64 -207 49 -157 163 -524 227 -730 26 -82
48 -154 49 -160 2 -10 59 -192 116 -370 27 -86 89 -286 180 -588 23 -76 39
-141 37 -144 -3 -2 -115 -38 -249 -79 -133 -41 -299 -92 -368 -114 -69 -21
-145 -45 -170 -52 -40 -11 -1 -14 320 -18 201 -3 442 -4 535 -2 l171 3 -1
2297 0 2297 -786 1 -787 1 15 -49z"/>
<path d="M5684 3214 c1 -1208 -1 -2199 -4 -2204 -3 -4 -288 -8 -635 -8 -346 0
-637 -2 -645 -2 -8 -1 -1 -5 15 -10 25 -6 152 -39 465 -121 19 -5 43 -12 53
-14 9 -3 26 -7 37 -9 11 -3 70 -18 132 -35 554 -148 732 -191 738 -180 4 6 22
68 40 138 18 69 56 216 85 326 84 318 157 600 360 1380 100 385 128 494 171
655 19 74 37 142 39 150 2 8 26 103 55 210 28 107 52 202 55 211 2 9 56 218
120 465 220 842 234 898 232 900 -1 1 -144 38 -317 84 -173 45 -362 95 -420
110 -101 27 -409 108 -440 116 -8 2 -40 10 -70 18 -30 9 -58 16 -61 16 -3 0
-5 -988 -5 -2196z"/>
</g>
</svg>
